<svg width="502" height="518" viewBox="0 0 502 518" fill="none" xmlns="http://www.w3.org/2000/svg">
<path d="M120.17 7.04262C53.8018 -107.91 93.5431 -255.105 208.934 -321.726C324.326 -388.347 471.671 -349.167 538.039 -234.214C604.406 -119.261 564.665 27.9333 449.274 94.5544C333.883 161.176 186.538 121.995 120.17 7.04262Z" fill="url(#paint0_linear)"/>
<path d="M378.732 260.303C312.364 145.35 352.106 -1.84463 467.497 -68.4658C582.888 -135.087 730.233 -95.9066 796.601 19.046C862.969 133.999 823.228 281.193 707.836 347.814C592.445 414.436 445.1 375.255 378.732 260.303Z" fill="url(#paint1_linear)"/>
<path d="M120.17 7.04262C53.8018 -107.91 93.5431 -255.105 208.934 -321.726C324.326 -388.347 471.671 -349.167 538.039 -234.214C604.406 -119.261 564.665 27.9333 449.274 94.5544C333.883 161.176 186.538 121.995 120.17 7.04262Z" fill="url(#paint2_linear)"/>
<defs>
<linearGradient id="paint0_linear" x1="53.7428" y1="-163.364" x2="898.32" y2="12.604" gradientUnits="userSpaceOnUse">
<stop stop-color="#23DBE7"/>
<stop offset="1" stop-color="#862AE2"/>
<stop offset="1" stop-color="#862AE2"/>
</linearGradient>
<linearGradient id="paint1_linear" x1="53.7428" y1="-163.364" x2="898.32" y2="12.604" gradientUnits="userSpaceOnUse">
<stop stop-color="#23DBE7"/>
<stop offset="1" stop-color="#862AE2"/>
<stop offset="1" stop-color="#862AE2"/>
</linearGradient>
<linearGradient id="paint2_linear" x1="53.7428" y1="-163.364" x2="898.32" y2="12.604" gradientUnits="userSpaceOnUse">
<stop stop-color="#23DBE7"/>
<stop offset="1" stop-color="#862AE2"/>
<stop offset="1" stop-color="#862AE2"/>
</linearGradient>
</defs>
</svg>
