<svg width="525" height="593" viewBox="0 0 525 593" fill="none" xmlns="http://www.w3.org/2000/svg">
<path d="M120.17 82.0426C53.8018 -32.91 93.5431 -180.105 208.934 -246.726C324.326 -313.347 471.671 -274.167 538.039 -159.214C604.406 -44.2614 564.665 102.933 449.274 169.554C333.883 236.176 186.538 196.995 120.17 82.0426Z" fill="url(#paint0_linear)"/>
<path d="M378.732 335.303C312.364 220.35 352.106 73.1554 467.497 6.53419C582.888 -60.087 730.233 -20.9066 796.601 94.046C862.969 208.999 823.228 356.193 707.836 422.814C592.445 489.436 445.1 450.255 378.732 335.303Z" fill="url(#paint1_linear)"/>
<path d="M120.17 82.0426C53.8018 -32.91 93.5431 -180.105 208.934 -246.726C324.326 -313.347 471.671 -274.167 538.039 -159.214C604.406 -44.2614 564.665 102.933 449.274 169.554C333.883 236.176 186.538 196.995 120.17 82.0426Z" fill="url(#paint2_linear)"/>
<defs>
<linearGradient id="paint0_linear" x1="53.7428" y1="-88.3636" x2="898.32" y2="87.604" gradientUnits="userSpaceOnUse">
<stop stop-color="#23DBE7"/>
<stop offset="1" stop-color="#862AE2"/>
<stop offset="1" stop-color="#862AE2"/>
</linearGradient>
<linearGradient id="paint1_linear" x1="53.7428" y1="-88.3636" x2="898.32" y2="87.604" gradientUnits="userSpaceOnUse">
<stop stop-color="#23DBE7"/>
<stop offset="1" stop-color="#862AE2"/>
<stop offset="1" stop-color="#862AE2"/>
</linearGradient>
<linearGradient id="paint2_linear" x1="53.7428" y1="-88.3636" x2="898.32" y2="87.604" gradientUnits="userSpaceOnUse">
<stop stop-color="#23DBE7"/>
<stop offset="1" stop-color="#862AE2"/>
<stop offset="1" stop-color="#862AE2"/>
</linearGradient>
</defs>
</svg>
