<svg width="21" height="18" viewBox="0 0 21 18" fill="none" xmlns="http://www.w3.org/2000/svg">
<path d="M1.96875 0C1.57937 0 1.19873 0.121809 0.874972 0.350025C0.551213 0.57824 0.298873 0.902611 0.149863 1.28212C0.000853032 1.66163 -0.0381348 2.07923 0.0378299 2.48211C0.113795 2.88499 0.3013 3.25507 0.576634 3.54553C0.851969 3.83599 1.20277 4.0338 1.58467 4.11394C1.96657 4.19408 2.36242 4.15295 2.72216 3.99575C3.0819 3.83855 3.38938 3.57235 3.60571 3.2308C3.82204 2.88925 3.9375 2.4877 3.9375 2.07692C3.9375 1.52609 3.73008 0.997815 3.36087 0.608317C2.99166 0.218818 2.4909 0 1.96875 0ZM1.96875 6.92308C1.57937 6.92308 1.19873 7.04489 0.874972 7.2731C0.551213 7.50132 0.298873 7.82569 0.149863 8.2052C0.000853032 8.5847 -0.0381348 9.0023 0.0378299 9.40519C0.113795 9.80807 0.3013 10.1781 0.576634 10.4686C0.851969 10.7591 1.20277 10.9569 1.58467 11.037C1.96657 11.1172 2.36242 11.076 2.72216 10.9188C3.0819 10.7616 3.38938 10.4954 3.60571 10.1539C3.82204 9.81233 3.9375 9.41078 3.9375 9C3.9375 8.44916 3.73008 7.92089 3.36087 7.53139C2.99166 7.14189 2.4909 6.92308 1.96875 6.92308ZM1.96875 13.8462C1.57937 13.8462 1.19873 13.968 0.874972 14.1962C0.551213 14.4244 0.298873 14.7488 0.149863 15.1283C0.000853032 15.5078 -0.0381348 15.9254 0.0378299 16.3283C0.113795 16.7311 0.3013 17.1012 0.576634 17.3917C0.851969 17.6821 1.20277 17.88 1.58467 17.9601C1.96657 18.0402 2.36242 17.9991 2.72216 17.8419C3.0819 17.6847 3.38938 17.4185 3.60571 17.077C3.82204 16.7354 3.9375 16.3339 3.9375 15.9231C3.9375 15.3722 3.73008 14.844 3.36087 14.4545C2.99166 14.065 2.4909 13.8462 1.96875 13.8462ZM20.3438 14.5385H7.21875C7.0447 14.5385 6.87778 14.6114 6.75471 14.7412C6.63164 14.8711 6.5625 15.0472 6.5625 15.2308V16.6154C6.5625 16.799 6.63164 16.9751 6.75471 17.1049C6.87778 17.2348 7.0447 17.3077 7.21875 17.3077H20.3438C20.5178 17.3077 20.6847 17.2348 20.8078 17.1049C20.9309 16.9751 21 16.799 21 16.6154V15.2308C21 15.0472 20.9309 14.8711 20.8078 14.7412C20.6847 14.6114 20.5178 14.5385 20.3438 14.5385ZM20.3438 0.692308H7.21875C7.0447 0.692308 6.87778 0.765247 6.75471 0.89508C6.63164 1.02491 6.5625 1.201 6.5625 1.38462V2.76923C6.5625 2.95284 6.63164 3.12893 6.75471 3.25877C6.87778 3.3886 7.0447 3.46154 7.21875 3.46154H20.3438C20.5178 3.46154 20.6847 3.3886 20.8078 3.25877C20.9309 3.12893 21 2.95284 21 2.76923V1.38462C21 1.201 20.9309 1.02491 20.8078 0.89508C20.6847 0.765247 20.5178 0.692308 20.3438 0.692308ZM20.3438 7.61538H7.21875C7.0447 7.61538 6.87778 7.68832 6.75471 7.81816C6.63164 7.94799 6.5625 8.12408 6.5625 8.30769V9.69231C6.5625 9.87592 6.63164 10.052 6.75471 10.1818C6.87778 10.3117 7.0447 10.3846 7.21875 10.3846H20.3438C20.5178 10.3846 20.6847 10.3117 20.8078 10.1818C20.9309 10.052 21 9.87592 21 9.69231V8.30769C21 8.12408 20.9309 7.94799 20.8078 7.81816C20.6847 7.68832 20.5178 7.61538 20.3438 7.61538Z" fill="black"/>
</svg>
