<svg width="317" height="52" viewBox="0 0 317 52" fill="none" xmlns="http://www.w3.org/2000/svg">
<path d="M86.792 27.42C88.988 26.592 90.464 24.396 90.464 21.984C90.464 20.22 89.78 18.672 88.448 17.376C87.116 16.044 85.208 15.396 82.76 15.396H70.808V42H83.372C85.928 42 87.98 41.244 89.528 39.768C91.076 38.292 91.868 36.42 91.868 34.224C91.868 30.912 90.104 28.248 86.792 27.42ZM81.716 20.508C83.48 20.508 84.56 21.66 84.56 23.064C84.56 24.504 83.48 25.728 81.464 25.728H76.676V20.508H81.716ZM76.676 36.852V30.588H82.22C84.488 30.588 85.712 31.992 85.712 33.72C85.712 35.412 84.452 36.852 82.112 36.852H76.676ZM102.82 42.54C105.952 42.54 108.544 41.532 110.524 39.552C112.504 37.536 113.512 35.052 113.512 32.136C113.512 29.22 112.504 26.736 110.524 24.756C108.544 22.74 105.952 21.732 102.82 21.732C99.6879 21.732 97.1319 22.74 95.1519 24.756C93.1719 26.736 92.1999 29.22 92.1999 32.136C92.1999 35.052 93.1719 37.536 95.1519 39.552C97.1319 41.532 99.6879 42.54 102.82 42.54ZM107.86 32.1C107.86 33.576 107.356 34.8 106.384 35.808C105.412 36.78 104.224 37.284 102.82 37.284C101.416 37.284 100.228 36.78 99.2559 35.808C98.2839 34.8 97.8159 33.576 97.8159 32.1C97.8159 30.696 98.2839 29.472 99.2559 28.5C100.228 27.492 101.416 26.988 102.82 26.988C104.224 26.988 105.412 27.492 106.384 28.5C107.356 29.472 107.86 30.696 107.86 32.1ZM138.9 21.732C136.056 21.732 133.392 22.92 131.916 25.08C130.872 22.812 128.676 21.732 126.264 21.732C123.708 21.696 121.296 22.956 120.18 25.08V22.272H114.672V42H120.324V31.308C120.324 28.572 122.016 26.916 124.32 26.916C126.516 26.916 128.028 28.5 128.028 31.128V42H133.68V31.272C133.68 28.572 135.372 26.916 137.712 26.916C139.872 26.916 141.348 28.356 141.348 31.092V42H147V30.012C147 27.384 146.244 25.332 144.696 23.892C143.148 22.452 141.24 21.732 138.9 21.732ZM157.79 42.468C160.814 42.468 163.262 41.676 165.098 40.128C166.97 38.58 167.906 36.564 167.906 34.152C167.906 31.092 166.322 28.824 163.118 27.384C162.434 27.06 161.426 26.664 160.058 26.124L157.466 25.08C156.026 24.432 155.306 23.64 155.306 22.74C155.306 21.444 156.458 20.544 158.474 20.544C160.454 20.544 162.938 21.444 164.486 22.92L167.438 18.492C164.954 16.152 161.93 14.964 158.402 14.964C155.63 14.964 153.326 15.72 151.562 17.232C149.798 18.744 148.934 20.652 148.934 22.956C148.934 25.872 150.374 28.14 153.218 29.688C153.974 30.084 155.126 30.588 156.638 31.164L159.014 32.028C160.562 32.712 161.318 33.54 161.318 34.512C161.318 35.988 159.842 36.924 157.826 36.924C154.982 36.924 152.57 35.736 150.59 33.396L147.35 37.644C149.798 40.776 153.578 42.468 157.79 42.468ZM188.573 31.668C188.573 28.608 187.637 26.196 185.765 24.432C183.893 22.668 181.517 21.768 178.601 21.768C175.505 21.768 172.985 22.74 171.077 24.72C169.169 26.664 168.197 29.112 168.197 32.1C168.197 35.016 169.133 37.464 170.969 39.444C172.841 41.424 175.505 42.432 178.997 42.432C182.345 42.432 185.225 41.532 187.637 39.696L185.405 35.844C183.533 37.104 181.481 37.752 179.249 37.752C176.369 37.752 174.569 36.528 173.885 34.044H188.393C188.501 33.144 188.573 32.352 188.573 31.668ZM178.601 26.34C180.941 26.34 182.597 27.744 183.137 30.012H173.849C174.461 27.708 176.297 26.34 178.601 26.34ZM195.371 42V33C195.371 28.968 197.207 27.168 199.979 27.168C200.807 27.168 201.635 27.312 202.463 27.6L202.931 22.2C202.031 21.876 201.239 21.732 200.483 21.732C198.143 21.732 196.379 22.776 195.119 24.828V22.272H189.719V42H195.371ZM211.954 34.368L207.382 22.272H201.154L209.65 41.964H214.078L222.61 22.272H216.454L211.954 34.368ZM225.829 20.256C227.701 20.256 229.177 18.816 229.177 16.908C229.177 15 227.701 13.56 225.829 13.56C223.921 13.56 222.445 15 222.445 16.908C222.445 18.816 223.921 20.256 225.829 20.256ZM228.601 22.272H222.949V42H228.601V22.272ZM240.348 37.248C238.908 37.248 237.72 36.78 236.748 35.808C235.812 34.836 235.344 33.576 235.344 32.1C235.344 30.66 235.812 29.436 236.784 28.464C237.756 27.492 238.944 26.988 240.42 26.988C242.4 26.988 243.948 27.924 245.1 29.796L249.6 27.384C247.98 23.784 244.38 21.768 240.312 21.768C237.18 21.768 234.66 22.74 232.68 24.684C230.7 26.592 229.728 29.076 229.728 32.1C229.728 34.692 230.448 36.888 231.888 38.724C233.364 40.56 235.308 41.712 237.756 42.18L236.712 44.808L237 45.852H238.908C240.276 45.852 240.96 46.248 240.96 47.04C240.96 47.76 240.312 48.336 239.124 48.336C238.224 48.336 237.252 48.084 236.208 47.58L235.056 50.748C236.676 51.504 238.188 51.864 239.628 51.864C243.084 51.864 245.1 49.848 245.1 47.436C245.1 45.312 243.408 43.872 241.248 43.728L241.824 42.324C245.28 41.856 248.088 39.948 249.564 37.176L244.992 34.476C244.164 36.096 242.328 37.248 240.348 37.248ZM259.88 42.54C263.012 42.54 265.604 41.532 267.584 39.552C269.564 37.536 270.572 35.052 270.572 32.136C270.572 29.22 269.564 26.736 267.584 24.756C265.604 22.74 263.012 21.732 259.88 21.732C256.748 21.732 254.192 22.74 252.212 24.756C250.232 26.736 249.26 29.22 249.26 32.136C249.26 35.052 250.232 37.536 252.212 39.552C254.192 41.532 256.748 42.54 259.88 42.54ZM264.92 32.1C264.92 33.576 264.416 34.8 263.444 35.808C262.472 36.78 261.284 37.284 259.88 37.284C258.476 37.284 257.288 36.78 256.316 35.808C255.344 34.8 254.876 33.576 254.876 32.1C254.876 30.696 255.344 29.472 256.316 28.5C257.288 27.492 258.476 26.988 259.88 26.988C261.284 26.988 262.472 27.492 263.444 28.5C264.416 29.472 264.92 30.696 264.92 32.1Z" fill="#263238"/>
<g clip-path="url(#clip0)">
<path d="M10.3983 15.6875C12.5514 15.6875 14.2983 13.9658 14.2983 11.8438C14.2983 9.72168 12.5514 8 10.3983 8C8.24517 8 6.49829 9.72168 6.49829 11.8438C6.49829 13.9658 8.24517 15.6875 10.3983 15.6875ZM41.5983 15.6875C43.7514 15.6875 45.4983 13.9658 45.4983 11.8438C45.4983 9.72168 43.7514 8 41.5983 8C39.4452 8 37.6983 9.72168 37.6983 11.8438C37.6983 13.9658 39.4452 15.6875 41.5983 15.6875ZM51.8115 45.4846L48.2365 36.676L44.8971 40.3916L44.7346 41.849L46.9852 47.3904C47.3914 48.3914 48.3665 49 49.3983 49C49.7233 49 50.0483 48.9439 50.3652 48.8158C51.6977 48.2873 52.3477 46.7979 51.8115 45.4846ZM49.0327 28.6842L47.5296 22.2619C47.1558 20.6604 46.0183 19.315 44.4827 18.6664C42.9796 18.0258 41.3139 18.1299 39.9246 18.9307C38.0802 20.0037 36.6989 21.6934 36.0164 23.6873L35.0983 26.402L33.7983 27.2188V19.5312C33.7983 18.8266 33.2133 18.25 32.4983 18.25H19.4983C18.7833 18.25 18.1983 18.8266 18.1983 19.5312V27.2188L16.8902 26.402L15.9721 23.6873C15.2977 21.6854 13.9083 20.0037 12.0639 18.9307C10.6664 18.1299 9.00892 18.0258 7.50579 18.6664C5.97017 19.315 4.83267 20.6604 4.45892 22.2619L2.96391 28.6842C2.59016 30.2857 3.02079 31.9834 4.13392 33.2246L9.59392 39.3025L10.4145 46.7178C10.5608 48.023 11.682 49 12.9983 49C13.0958 49 13.1852 48.992 13.2827 48.984C14.7127 48.8318 15.7364 47.5666 15.5821 46.1572L14.7614 38.726C14.6395 37.685 14.2008 36.716 13.4939 35.9232L9.9758 31.9994L11.4058 26.3699L11.9583 28.0035C12.2914 29.0045 12.9252 29.8773 13.9489 30.6141L18.1008 33.2166C18.4746 33.4488 19.0839 33.585 19.4983 33.617H32.4983C32.9127 33.585 33.5221 33.4488 33.8958 33.2166L38.0477 30.6141C39.0714 29.8773 39.7052 29.0125 40.0383 28.0035L40.5908 26.3699L42.0208 31.9994L38.5027 35.9232C37.7958 36.716 37.3571 37.685 37.2352 38.726L36.4146 46.1572C36.2602 47.5666 37.2921 48.8318 38.7139 48.984C38.8114 48.992 38.9008 49 38.9983 49C40.3064 49 41.4358 48.0311 41.5821 46.7178L42.4027 39.3025L47.8627 33.2246C48.9677 31.9834 49.4065 30.2857 49.0327 28.6842ZM3.76017 36.676L0.185162 45.4846C-0.351088 46.7979 0.298913 48.2873 1.63141 48.8158C2.99641 49.3443 4.48329 48.6797 5.01142 47.3904L7.26204 41.849L7.09954 40.3916L3.76017 36.676Z" fill="#263238"/>
</g>
<defs>
<clipPath id="clip0">
<rect width="52" height="41" fill="white" transform="translate(0 8)"/>
</clipPath>
</defs>
</svg>
