<svg width="187" height="45" viewBox="0 0 187 45" fill="none" xmlns="http://www.w3.org/2000/svg">
<path d="M52.528 18.28C53.992 17.728 54.976 16.264 54.976 14.656C54.976 13.48 54.52 12.448 53.632 11.584C52.744 10.696 51.472 10.264 49.84 10.264H41.872V28H50.248C51.952 28 53.32 27.496 54.352 26.512C55.384 25.528 55.912 24.28 55.912 22.816C55.912 20.608 54.736 18.832 52.528 18.28ZM49.144 13.672C50.32 13.672 51.04 14.44 51.04 15.376C51.04 16.336 50.32 17.152 48.976 17.152H45.784V13.672H49.144ZM45.784 24.568V20.392H49.48C50.992 20.392 51.808 21.328 51.808 22.48C51.808 23.608 50.968 24.568 49.408 24.568H45.784ZM63.2132 28.36C65.3012 28.36 67.0292 27.688 68.3493 26.368C69.6692 25.024 70.3412 23.368 70.3412 21.424C70.3412 19.48 69.6692 17.824 68.3493 16.504C67.0292 15.16 65.3012 14.488 63.2132 14.488C61.1252 14.488 59.4212 15.16 58.1012 16.504C56.7812 17.824 56.1332 19.48 56.1332 21.424C56.1332 23.368 56.7812 25.024 58.1012 26.368C59.4212 27.688 61.1252 28.36 63.2132 28.36ZM66.5733 21.4C66.5733 22.384 66.2373 23.2 65.5892 23.872C64.9412 24.52 64.1492 24.856 63.2132 24.856C62.2772 24.856 61.4852 24.52 60.8372 23.872C60.1892 23.2 59.8772 22.384 59.8772 21.4C59.8772 20.464 60.1892 19.648 60.8372 19C61.4852 18.328 62.2772 17.992 63.2132 17.992C64.1492 17.992 64.9412 18.328 65.5892 19C66.2373 19.648 66.5733 20.464 66.5733 21.4ZM87.2667 14.488C85.3707 14.488 83.5947 15.28 82.6107 16.72C81.9147 15.208 80.4507 14.488 78.8427 14.488C77.1387 14.464 75.5307 15.304 74.7867 16.72V14.848H71.1147V28H74.8827V20.872C74.8827 19.048 76.0107 17.944 77.5467 17.944C79.0107 17.944 80.0187 19 80.0187 20.752V28H83.7867V20.848C83.7867 19.048 84.9147 17.944 86.4747 17.944C87.9147 17.944 88.8987 18.904 88.8987 20.728V28H92.6667V20.008C92.6667 18.256 92.1627 16.888 91.1307 15.928C90.0987 14.968 88.8267 14.488 87.2667 14.488ZM99.8599 28.312C101.876 28.312 103.508 27.784 104.732 26.752C105.98 25.72 106.604 24.376 106.604 22.768C106.604 20.728 105.548 19.216 103.412 18.256C102.956 18.04 102.284 17.776 101.372 17.416L99.6439 16.72C98.6839 16.288 98.2039 15.76 98.2039 15.16C98.2039 14.296 98.9719 13.696 100.316 13.696C101.636 13.696 103.292 14.296 104.324 15.28L106.292 12.328C104.636 10.768 102.62 9.976 100.268 9.976C98.4199 9.976 96.8839 10.48 95.7079 11.488C94.5319 12.496 93.9559 13.768 93.9559 15.304C93.9559 17.248 94.9159 18.76 96.8119 19.792C97.3159 20.056 98.0839 20.392 99.0919 20.776L100.676 21.352C101.708 21.808 102.212 22.36 102.212 23.008C102.212 23.992 101.228 24.616 99.8839 24.616C97.9879 24.616 96.3799 23.824 95.0599 22.264L92.8999 25.096C94.5319 27.184 97.0519 28.312 99.8599 28.312ZM120.382 21.112C120.382 19.072 119.758 17.464 118.51 16.288C117.262 15.112 115.678 14.512 113.734 14.512C111.67 14.512 109.99 15.16 108.718 16.48C107.446 17.776 106.798 19.408 106.798 21.4C106.798 23.344 107.422 24.976 108.646 26.296C109.894 27.616 111.67 28.288 113.998 28.288C116.23 28.288 118.15 27.688 119.758 26.464L118.27 23.896C117.022 24.736 115.654 25.168 114.166 25.168C112.246 25.168 111.046 24.352 110.59 22.696H120.262C120.334 22.096 120.382 21.568 120.382 21.112ZM113.734 17.56C115.294 17.56 116.398 18.496 116.758 20.008H110.566C110.974 18.472 112.198 17.56 113.734 17.56ZM124.914 28V22C124.914 19.312 126.138 18.112 127.986 18.112C128.538 18.112 129.09 18.208 129.642 18.4L129.954 14.8C129.354 14.584 128.826 14.488 128.322 14.488C126.762 14.488 125.586 15.184 124.746 16.552V14.848H121.146V28H124.914ZM135.97 22.912L132.922 14.848H128.77L134.434 27.976H137.386L143.074 14.848H138.97L135.97 22.912ZM145.219 13.504C146.467 13.504 147.451 12.544 147.451 11.272C147.451 10 146.467 9.04 145.219 9.04C143.947 9.04 142.963 10 142.963 11.272C142.963 12.544 143.947 13.504 145.219 13.504ZM147.067 14.848H143.299V28H147.067V14.848ZM154.899 24.832C153.939 24.832 153.147 24.52 152.499 23.872C151.875 23.224 151.563 22.384 151.563 21.4C151.563 20.44 151.875 19.624 152.523 18.976C153.171 18.328 153.963 17.992 154.947 17.992C156.267 17.992 157.299 18.616 158.067 19.864L161.067 18.256C159.987 15.856 157.587 14.512 154.875 14.512C152.787 14.512 151.107 15.16 149.787 16.456C148.467 17.728 147.819 19.384 147.819 21.4C147.819 23.128 148.299 24.592 149.259 25.816C150.243 27.04 151.539 27.808 153.171 28.12L152.475 29.872L152.667 30.568H153.939C154.851 30.568 155.307 30.832 155.307 31.36C155.307 31.84 154.875 32.224 154.083 32.224C153.483 32.224 152.835 32.056 152.139 31.72L151.371 33.832C152.451 34.336 153.459 34.576 154.419 34.576C156.723 34.576 158.067 33.232 158.067 31.624C158.067 30.208 156.939 29.248 155.499 29.152L155.883 28.216C158.187 27.904 160.059 26.632 161.043 24.784L157.995 22.984C157.443 24.064 156.219 24.832 154.899 24.832ZM167.92 28.36C170.008 28.36 171.736 27.688 173.056 26.368C174.376 25.024 175.048 23.368 175.048 21.424C175.048 19.48 174.376 17.824 173.056 16.504C171.736 15.16 170.008 14.488 167.92 14.488C165.832 14.488 164.128 15.16 162.808 16.504C161.488 17.824 160.84 19.48 160.84 21.424C160.84 23.368 161.488 25.024 162.808 26.368C164.128 27.688 165.832 28.36 167.92 28.36ZM171.28 21.4C171.28 22.384 170.944 23.2 170.296 23.872C169.648 24.52 168.856 24.856 167.92 24.856C166.984 24.856 166.192 24.52 165.544 23.872C164.896 23.2 164.584 22.384 164.584 21.4C164.584 20.464 164.896 19.648 165.544 19C166.192 18.328 166.984 17.992 167.92 17.992C168.856 17.992 169.648 18.328 170.296 19C170.944 19.648 171.28 20.464 171.28 21.4Z" fill="#333333"/>
<g clip-path="url(#clip0)">
<path d="M6.39883 11.6875C7.72383 11.6875 8.79883 10.6377 8.79883 9.34375C8.79883 8.0498 7.72383 7 6.39883 7C5.07383 7 3.99883 8.0498 3.99883 9.34375C3.99883 10.6377 5.07383 11.6875 6.39883 11.6875ZM25.5988 11.6875C26.9238 11.6875 27.9988 10.6377 27.9988 9.34375C27.9988 8.0498 26.9238 7 25.5988 7C24.2738 7 23.1988 8.0498 23.1988 9.34375C23.1988 10.6377 24.2738 11.6875 25.5988 11.6875ZM31.8839 29.8564L29.6839 24.4854L27.6288 26.751L27.5288 27.6396L28.9138 31.0186C29.1638 31.6289 29.7639 32 30.3989 32C30.5989 32 30.7989 31.9658 30.9939 31.8877C31.8139 31.5654 32.2139 30.6572 31.8839 29.8564ZM30.1739 19.6123L29.2488 15.6963C29.0189 14.7197 28.3188 13.8994 27.3738 13.5039C26.4488 13.1133 25.4238 13.1768 24.5688 13.665C23.4338 14.3193 22.5838 15.3496 22.1638 16.5654L21.5988 18.2207L20.7988 18.7188V14.0312C20.7988 13.6016 20.4388 13.25 19.9988 13.25H11.9988C11.5588 13.25 11.1988 13.6016 11.1988 14.0312V18.7188L10.3938 18.2207L9.82884 16.5654C9.41384 15.3447 8.55883 14.3193 7.42383 13.665C6.56383 13.1768 5.54383 13.1133 4.61883 13.5039C3.67383 13.8994 2.97383 14.7197 2.74383 15.6963L1.82383 19.6123C1.59383 20.5889 1.85883 21.624 2.54383 22.3809L5.90383 26.0869L6.40883 30.6084C6.49883 31.4043 7.18883 32 7.99883 32C8.05883 32 8.11383 31.9951 8.17383 31.9902C9.05383 31.8975 9.68384 31.126 9.58883 30.2666L9.08383 25.7354C9.00883 25.1006 8.73883 24.5098 8.30383 24.0264L6.13883 21.6338L7.01883 18.2012L7.35883 19.1973C7.56383 19.8076 7.95383 20.3398 8.58383 20.7891L11.1388 22.376C11.3688 22.5176 11.7438 22.6006 11.9988 22.6201H19.9988C20.2538 22.6006 20.6288 22.5176 20.8588 22.376L23.4138 20.7891C24.0438 20.3398 24.4338 19.8125 24.6388 19.1973L24.9788 18.2012L25.8588 21.6338L23.6938 24.0264C23.2588 24.5098 22.9888 25.1006 22.9138 25.7354L22.4088 30.2666C22.3138 31.126 22.9488 31.8975 23.8238 31.9902C23.8838 31.9951 23.9388 32 23.9988 32C24.8038 32 25.4988 31.4092 25.5888 30.6084L26.0938 26.0869L29.4538 22.3809C30.1338 21.624 30.4039 20.5889 30.1739 19.6123ZM2.31383 24.4854L0.113826 29.8564C-0.216174 30.6572 0.183826 31.5654 1.00383 31.8877C1.84383 32.21 2.75883 31.8047 3.08383 31.0186L4.46883 27.6396L4.36883 26.751L2.31383 24.4854Z" fill="#5580E4"/>
</g>
<defs>
<clipPath id="clip0">
<rect width="32" height="25" fill="white" transform="translate(0 7)"/>
</clipPath>
</defs>
</svg>
