<svg width="28" height="26" viewBox="0 0 28 26" fill="none" xmlns="http://www.w3.org/2000/svg">
<path d="M10.5 11.8125C13.7607 11.8125 16.4062 9.16699 16.4062 5.90625C16.4062 2.64551 13.7607 0 10.5 0C7.23926 0 4.59375 2.64551 4.59375 5.90625C4.59375 9.16699 7.23926 11.8125 10.5 11.8125ZM15.75 13.125H13.49C12.5795 13.5434 11.5664 13.7812 10.5 13.7812C9.43359 13.7812 8.42461 13.5434 7.50996 13.125H5.25C2.3502 13.125 0 15.4752 0 18.375V19.0312C0 20.1182 0.881836 21 1.96875 21H19.0312C20.1182 21 21 20.1182 21 19.0312V18.375C21 15.4752 18.6498 13.125 15.75 13.125Z" fill="black"/>
<path d="M24.347 11.6224L24.3466 11.6223C22.9805 11.2838 21.4742 11.6482 20.405 12.7171L20.405 12.7171C19.3351 13.787 18.9923 15.2991 19.332 16.663L14.1223 21.8727C13.2926 22.7025 13.2926 24.0479 14.1223 24.8777L14.4759 24.5241L14.1223 24.8777C14.9521 25.7074 16.2975 25.7074 17.1273 24.8777L22.3316 19.6733C23.6979 20.0178 25.2078 19.6701 26.2826 18.5953C27.353 17.5249 27.7167 16.0163 27.3768 14.6494C27.2245 14.0364 26.4647 13.8392 26.0272 14.2766L24.3211 15.9827L23.2037 15.7965L23.0175 14.6792L24.7236 12.973C25.1701 12.5266 24.9506 11.7725 24.347 11.6224ZM15.6251 23.4843C15.5648 23.4843 15.5157 23.4352 15.5157 23.3749C15.5157 23.3145 15.5646 23.2656 15.6251 23.2656C15.6855 23.2656 15.7344 23.3145 15.7344 23.3749C15.7344 23.4352 15.6853 23.4843 15.6251 23.4843Z" fill="black" stroke="#F0F0F0"/>
</svg>
