<svg width="289" height="1050" viewBox="0 0 289 1050" fill="none" xmlns="http://www.w3.org/2000/svg">
<circle cx="-2" cy="3" r="3" fill="black" fill-opacity="0.08"/>
<circle cx="34" cy="3" r="3" fill="black" fill-opacity="0.08"/>
<circle cx="70" cy="3" r="3" fill="black" fill-opacity="0.08"/>
<circle cx="106" cy="3" r="3" fill="black" fill-opacity="0.08"/>
<circle cx="142" cy="3" r="3" fill="black" fill-opacity="0.08"/>
<circle cx="178" cy="3" r="3" fill="black" fill-opacity="0.08"/>
<circle cx="214" cy="3" r="3" fill="black" fill-opacity="0.08"/>
<circle cx="250" cy="3" r="3" fill="black" fill-opacity="0.08"/>
<circle cx="286" cy="3" r="3" fill="black" fill-opacity="0.08"/>
<circle cx="-2" cy="39" r="3" fill="black" fill-opacity="0.08"/>
<circle cx="34" cy="39" r="3" fill="black" fill-opacity="0.08"/>
<circle cx="70" cy="39" r="3" fill="black" fill-opacity="0.08"/>
<circle cx="106" cy="39" r="3" fill="black" fill-opacity="0.08"/>
<circle cx="142" cy="39" r="3" fill="black" fill-opacity="0.08"/>
<circle cx="178" cy="39" r="3" fill="black" fill-opacity="0.08"/>
<circle cx="214" cy="39" r="3" fill="black" fill-opacity="0.08"/>
<circle cx="250" cy="39" r="3" fill="black" fill-opacity="0.08"/>
<circle cx="286" cy="39" r="3" fill="black" fill-opacity="0.08"/>
<circle cx="-2" cy="75" r="3" fill="black" fill-opacity="0.08"/>
<circle cx="34" cy="75" r="3" fill="black" fill-opacity="0.08"/>
<circle cx="70" cy="75" r="3" fill="black" fill-opacity="0.08"/>
<circle cx="106" cy="75" r="3" fill="black" fill-opacity="0.08"/>
<circle cx="142" cy="75" r="3" fill="black" fill-opacity="0.08"/>
<circle cx="178" cy="75" r="3" fill="black" fill-opacity="0.08"/>
<circle cx="214" cy="75" r="3" fill="black" fill-opacity="0.08"/>
<circle cx="250" cy="75" r="3" fill="black" fill-opacity="0.08"/>
<circle cx="286" cy="75" r="3" fill="black" fill-opacity="0.08"/>
<circle cx="-2" cy="111" r="3" fill="black" fill-opacity="0.08"/>
<circle cx="34" cy="111" r="3" fill="black" fill-opacity="0.08"/>
<circle cx="70" cy="111" r="3" fill="black" fill-opacity="0.08"/>
<circle cx="106" cy="111" r="3" fill="black" fill-opacity="0.08"/>
<circle cx="142" cy="111" r="3" fill="black" fill-opacity="0.08"/>
<circle cx="178" cy="111" r="3" fill="black" fill-opacity="0.08"/>
<circle cx="214" cy="111" r="3" fill="black" fill-opacity="0.08"/>
<circle cx="250" cy="111" r="3" fill="black" fill-opacity="0.08"/>
<circle cx="286" cy="111" r="3" fill="black" fill-opacity="0.08"/>
<circle cx="-2" cy="147" r="3" fill="black" fill-opacity="0.08"/>
<circle cx="34" cy="147" r="3" fill="black" fill-opacity="0.08"/>
<circle cx="70" cy="147" r="3" fill="black" fill-opacity="0.08"/>
<circle cx="106" cy="147" r="3" fill="black" fill-opacity="0.08"/>
<circle cx="142" cy="147" r="3" fill="black" fill-opacity="0.08"/>
<circle cx="178" cy="147" r="3" fill="black" fill-opacity="0.08"/>
<circle cx="214" cy="147" r="3" fill="black" fill-opacity="0.08"/>
<circle cx="250" cy="147" r="3" fill="black" fill-opacity="0.08"/>
<circle cx="286" cy="147" r="3" fill="black" fill-opacity="0.08"/>
<circle cx="-2" cy="183" r="3" fill="black" fill-opacity="0.08"/>
<circle cx="34" cy="183" r="3" fill="black" fill-opacity="0.08"/>
<circle cx="70" cy="183" r="3" fill="black" fill-opacity="0.08"/>
<circle cx="106" cy="183" r="3" fill="black" fill-opacity="0.08"/>
<circle cx="142" cy="183" r="3" fill="black" fill-opacity="0.08"/>
<circle cx="178" cy="183" r="3" fill="black" fill-opacity="0.08"/>
<circle cx="214" cy="183" r="3" fill="black" fill-opacity="0.08"/>
<circle cx="250" cy="183" r="3" fill="black" fill-opacity="0.08"/>
<circle cx="286" cy="183" r="3" fill="black" fill-opacity="0.08"/>
<circle cx="-2" cy="219" r="3" fill="black" fill-opacity="0.08"/>
<circle cx="34" cy="219" r="3" fill="black" fill-opacity="0.08"/>
<circle cx="70" cy="219" r="3" fill="black" fill-opacity="0.08"/>
<circle cx="106" cy="219" r="3" fill="black" fill-opacity="0.08"/>
<circle cx="142" cy="219" r="3" fill="black" fill-opacity="0.08"/>
<circle cx="178" cy="219" r="3" fill="black" fill-opacity="0.08"/>
<circle cx="214" cy="219" r="3" fill="black" fill-opacity="0.08"/>
<circle cx="250" cy="219" r="3" fill="black" fill-opacity="0.08"/>
<circle cx="286" cy="219" r="3" fill="black" fill-opacity="0.08"/>
<circle cx="-2" cy="255" r="3" fill="black" fill-opacity="0.08"/>
<circle cx="34" cy="255" r="3" fill="black" fill-opacity="0.08"/>
<circle cx="70" cy="255" r="3" fill="black" fill-opacity="0.08"/>
<circle cx="106" cy="255" r="3" fill="black" fill-opacity="0.08"/>
<circle cx="142" cy="255" r="3" fill="black" fill-opacity="0.08"/>
<circle cx="178" cy="255" r="3" fill="black" fill-opacity="0.08"/>
<circle cx="214" cy="255" r="3" fill="black" fill-opacity="0.08"/>
<circle cx="250" cy="255" r="3" fill="black" fill-opacity="0.08"/>
<circle cx="286" cy="255" r="3" fill="black" fill-opacity="0.08"/>
<circle cx="-2" cy="291" r="3" fill="black" fill-opacity="0.08"/>
<circle cx="34" cy="291" r="3" fill="black" fill-opacity="0.08"/>
<circle cx="70" cy="291" r="3" fill="black" fill-opacity="0.08"/>
<circle cx="106" cy="291" r="3" fill="black" fill-opacity="0.08"/>
<circle cx="142" cy="291" r="3" fill="black" fill-opacity="0.08"/>
<circle cx="178" cy="291" r="3" fill="black" fill-opacity="0.08"/>
<circle cx="214" cy="291" r="3" fill="black" fill-opacity="0.08"/>
<circle cx="250" cy="291" r="3" fill="black" fill-opacity="0.08"/>
<circle cx="286" cy="291" r="3" fill="black" fill-opacity="0.08"/>
<circle cx="-2" cy="327" r="3" fill="black" fill-opacity="0.08"/>
<circle cx="34" cy="327" r="3" fill="black" fill-opacity="0.08"/>
<circle cx="70" cy="327" r="3" fill="black" fill-opacity="0.08"/>
<circle cx="106" cy="327" r="3" fill="black" fill-opacity="0.08"/>
<circle cx="142" cy="327" r="3" fill="black" fill-opacity="0.08"/>
<circle cx="178" cy="327" r="3" fill="black" fill-opacity="0.08"/>
<circle cx="214" cy="327" r="3" fill="black" fill-opacity="0.08"/>
<circle cx="250" cy="327" r="3" fill="black" fill-opacity="0.08"/>
<circle cx="286" cy="327" r="3" fill="black" fill-opacity="0.08"/>
<circle cx="-2" cy="363" r="3" fill="black" fill-opacity="0.08"/>
<circle cx="34" cy="363" r="3" fill="black" fill-opacity="0.08"/>
<circle cx="70" cy="363" r="3" fill="black" fill-opacity="0.08"/>
<circle cx="106" cy="363" r="3" fill="black" fill-opacity="0.08"/>
<circle cx="142" cy="363" r="3" fill="black" fill-opacity="0.08"/>
<circle cx="178" cy="363" r="3" fill="black" fill-opacity="0.08"/>
<circle cx="214" cy="363" r="3" fill="black" fill-opacity="0.08"/>
<circle cx="250" cy="363" r="3" fill="black" fill-opacity="0.08"/>
<circle cx="286" cy="363" r="3" fill="black" fill-opacity="0.08"/>
<circle cx="-2" cy="399" r="3" fill="black" fill-opacity="0.08"/>
<circle cx="34" cy="399" r="3" fill="black" fill-opacity="0.08"/>
<circle cx="70" cy="399" r="3" fill="black" fill-opacity="0.08"/>
<circle cx="106" cy="399" r="3" fill="black" fill-opacity="0.08"/>
<circle cx="142" cy="399" r="3" fill="black" fill-opacity="0.08"/>
<circle cx="178" cy="399" r="3" fill="black" fill-opacity="0.08"/>
<circle cx="214" cy="399" r="3" fill="black" fill-opacity="0.08"/>
<circle cx="250" cy="399" r="3" fill="black" fill-opacity="0.08"/>
<circle cx="286" cy="399" r="3" fill="black" fill-opacity="0.08"/>
<circle cx="-2" cy="435" r="3" fill="black" fill-opacity="0.08"/>
<circle cx="34" cy="435" r="3" fill="black" fill-opacity="0.08"/>
<circle cx="70" cy="435" r="3" fill="black" fill-opacity="0.08"/>
<circle cx="106" cy="435" r="3" fill="black" fill-opacity="0.08"/>
<circle cx="142" cy="435" r="3" fill="black" fill-opacity="0.08"/>
<circle cx="178" cy="435" r="3" fill="black" fill-opacity="0.08"/>
<circle cx="214" cy="435" r="3" fill="black" fill-opacity="0.08"/>
<circle cx="250" cy="435" r="3" fill="black" fill-opacity="0.08"/>
<circle cx="286" cy="435" r="3" fill="black" fill-opacity="0.08"/>
<circle cx="-2" cy="471" r="3" fill="black" fill-opacity="0.08"/>
<circle cx="34" cy="471" r="3" fill="black" fill-opacity="0.08"/>
<circle cx="70" cy="471" r="3" fill="black" fill-opacity="0.08"/>
<circle cx="106" cy="471" r="3" fill="black" fill-opacity="0.08"/>
<circle cx="142" cy="471" r="3" fill="black" fill-opacity="0.08"/>
<circle cx="178" cy="471" r="3" fill="black" fill-opacity="0.08"/>
<circle cx="214" cy="471" r="3" fill="black" fill-opacity="0.08"/>
<circle cx="250" cy="471" r="3" fill="black" fill-opacity="0.08"/>
<circle cx="286" cy="471" r="3" fill="black" fill-opacity="0.08"/>
<circle cx="-2" cy="507" r="3" fill="black" fill-opacity="0.08"/>
<circle cx="34" cy="507" r="3" fill="black" fill-opacity="0.08"/>
<circle cx="70" cy="507" r="3" fill="black" fill-opacity="0.08"/>
<circle cx="106" cy="507" r="3" fill="black" fill-opacity="0.08"/>
<circle cx="142" cy="507" r="3" fill="black" fill-opacity="0.08"/>
<circle cx="178" cy="507" r="3" fill="black" fill-opacity="0.08"/>
<circle cx="214" cy="507" r="3" fill="black" fill-opacity="0.08"/>
<circle cx="250" cy="507" r="3" fill="black" fill-opacity="0.08"/>
<circle cx="286" cy="507" r="3" fill="black" fill-opacity="0.08"/>
<circle cx="-2" cy="543" r="3" fill="black" fill-opacity="0.08"/>
<circle cx="34" cy="543" r="3" fill="black" fill-opacity="0.08"/>
<circle cx="70" cy="543" r="3" fill="black" fill-opacity="0.08"/>
<circle cx="106" cy="543" r="3" fill="black" fill-opacity="0.08"/>
<circle cx="142" cy="543" r="3" fill="black" fill-opacity="0.08"/>
<circle cx="178" cy="543" r="3" fill="black" fill-opacity="0.08"/>
<circle cx="214" cy="543" r="3" fill="black" fill-opacity="0.08"/>
<circle cx="250" cy="543" r="3" fill="black" fill-opacity="0.08"/>
<circle cx="286" cy="543" r="3" fill="black" fill-opacity="0.08"/>
<circle cx="-2" cy="579" r="3" fill="black" fill-opacity="0.08"/>
<circle cx="34" cy="579" r="3" fill="black" fill-opacity="0.08"/>
<circle cx="70" cy="579" r="3" fill="black" fill-opacity="0.08"/>
<circle cx="106" cy="579" r="3" fill="black" fill-opacity="0.08"/>
<circle cx="142" cy="579" r="3" fill="black" fill-opacity="0.08"/>
<circle cx="178" cy="579" r="3" fill="black" fill-opacity="0.08"/>
<circle cx="214" cy="579" r="3" fill="black" fill-opacity="0.08"/>
<circle cx="250" cy="579" r="3" fill="black" fill-opacity="0.08"/>
<circle cx="286" cy="579" r="3" fill="black" fill-opacity="0.08"/>
<circle cx="-2" cy="615" r="3" fill="black" fill-opacity="0.08"/>
<circle cx="34" cy="615" r="3" fill="black" fill-opacity="0.08"/>
<circle cx="70" cy="615" r="3" fill="black" fill-opacity="0.08"/>
<circle cx="106" cy="615" r="3" fill="black" fill-opacity="0.08"/>
<circle cx="142" cy="615" r="3" fill="black" fill-opacity="0.08"/>
<circle cx="178" cy="615" r="3" fill="black" fill-opacity="0.08"/>
<circle cx="214" cy="615" r="3" fill="black" fill-opacity="0.08"/>
<circle cx="250" cy="615" r="3" fill="black" fill-opacity="0.08"/>
<circle cx="286" cy="615" r="3" fill="black" fill-opacity="0.08"/>
<circle cx="-2" cy="651" r="3" fill="black" fill-opacity="0.08"/>
<circle cx="34" cy="651" r="3" fill="black" fill-opacity="0.08"/>
<circle cx="70" cy="651" r="3" fill="black" fill-opacity="0.08"/>
<circle cx="106" cy="651" r="3" fill="black" fill-opacity="0.08"/>
<circle cx="142" cy="651" r="3" fill="black" fill-opacity="0.08"/>
<circle cx="178" cy="651" r="3" fill="black" fill-opacity="0.08"/>
<circle cx="214" cy="651" r="3" fill="black" fill-opacity="0.08"/>
<circle cx="250" cy="651" r="3" fill="black" fill-opacity="0.08"/>
<circle cx="286" cy="651" r="3" fill="black" fill-opacity="0.08"/>
<circle cx="-2" cy="687" r="3" fill="black" fill-opacity="0.08"/>
<circle cx="34" cy="687" r="3" fill="black" fill-opacity="0.08"/>
<circle cx="70" cy="687" r="3" fill="black" fill-opacity="0.08"/>
<circle cx="106" cy="687" r="3" fill="black" fill-opacity="0.08"/>
<circle cx="142" cy="687" r="3" fill="black" fill-opacity="0.08"/>
<circle cx="178" cy="687" r="3" fill="black" fill-opacity="0.08"/>
<circle cx="214" cy="687" r="3" fill="black" fill-opacity="0.08"/>
<circle cx="250" cy="687" r="3" fill="black" fill-opacity="0.08"/>
<circle cx="286" cy="687" r="3" fill="black" fill-opacity="0.08"/>
<circle cx="-2" cy="723" r="3" fill="black" fill-opacity="0.08"/>
<circle cx="34" cy="723" r="3" fill="black" fill-opacity="0.08"/>
<circle cx="70" cy="723" r="3" fill="black" fill-opacity="0.08"/>
<circle cx="106" cy="723" r="3" fill="black" fill-opacity="0.08"/>
<circle cx="142" cy="723" r="3" fill="black" fill-opacity="0.08"/>
<circle cx="178" cy="723" r="3" fill="black" fill-opacity="0.08"/>
<circle cx="214" cy="723" r="3" fill="black" fill-opacity="0.08"/>
<circle cx="250" cy="723" r="3" fill="black" fill-opacity="0.08"/>
<circle cx="286" cy="723" r="3" fill="black" fill-opacity="0.08"/>
<circle cx="-2" cy="759" r="3" fill="black" fill-opacity="0.08"/>
<circle cx="34" cy="759" r="3" fill="black" fill-opacity="0.08"/>
<circle cx="70" cy="759" r="3" fill="black" fill-opacity="0.08"/>
<circle cx="106" cy="759" r="3" fill="black" fill-opacity="0.08"/>
<circle cx="142" cy="759" r="3" fill="black" fill-opacity="0.08"/>
<circle cx="178" cy="759" r="3" fill="black" fill-opacity="0.08"/>
<circle cx="214" cy="759" r="3" fill="black" fill-opacity="0.08"/>
<circle cx="250" cy="759" r="3" fill="black" fill-opacity="0.08"/>
<circle cx="286" cy="759" r="3" fill="black" fill-opacity="0.08"/>
<circle cx="-2" cy="795" r="3" fill="black" fill-opacity="0.08"/>
<circle cx="34" cy="795" r="3" fill="black" fill-opacity="0.08"/>
<circle cx="70" cy="795" r="3" fill="black" fill-opacity="0.08"/>
<circle cx="106" cy="795" r="3" fill="black" fill-opacity="0.08"/>
<circle cx="142" cy="795" r="3" fill="black" fill-opacity="0.08"/>
<circle cx="178" cy="795" r="3" fill="black" fill-opacity="0.08"/>
<circle cx="214" cy="795" r="3" fill="black" fill-opacity="0.08"/>
<circle cx="250" cy="795" r="3" fill="black" fill-opacity="0.08"/>
<circle cx="286" cy="795" r="3" fill="black" fill-opacity="0.08"/>
<circle cx="-2" cy="831" r="3" fill="black" fill-opacity="0.08"/>
<circle cx="34" cy="831" r="3" fill="black" fill-opacity="0.08"/>
<circle cx="70" cy="831" r="3" fill="black" fill-opacity="0.08"/>
<circle cx="106" cy="831" r="3" fill="black" fill-opacity="0.08"/>
<circle cx="142" cy="831" r="3" fill="black" fill-opacity="0.08"/>
<circle cx="178" cy="831" r="3" fill="black" fill-opacity="0.08"/>
<circle cx="214" cy="831" r="3" fill="black" fill-opacity="0.08"/>
<circle cx="250" cy="831" r="3" fill="black" fill-opacity="0.08"/>
<circle cx="286" cy="831" r="3" fill="black" fill-opacity="0.08"/>
<circle cx="-2" cy="867" r="3" fill="black" fill-opacity="0.08"/>
<circle cx="34" cy="867" r="3" fill="black" fill-opacity="0.08"/>
<circle cx="70" cy="867" r="3" fill="black" fill-opacity="0.08"/>
<circle cx="106" cy="867" r="3" fill="black" fill-opacity="0.08"/>
<circle cx="142" cy="867" r="3" fill="black" fill-opacity="0.08"/>
<circle cx="178" cy="867" r="3" fill="black" fill-opacity="0.08"/>
<circle cx="214" cy="867" r="3" fill="black" fill-opacity="0.08"/>
<circle cx="250" cy="867" r="3" fill="black" fill-opacity="0.08"/>
<circle cx="286" cy="867" r="3" fill="black" fill-opacity="0.08"/>
<circle cx="-2" cy="903" r="3" fill="black" fill-opacity="0.08"/>
<circle cx="34" cy="903" r="3" fill="black" fill-opacity="0.08"/>
<circle cx="70" cy="903" r="3" fill="black" fill-opacity="0.08"/>
<circle cx="106" cy="903" r="3" fill="black" fill-opacity="0.08"/>
<circle cx="142" cy="903" r="3" fill="black" fill-opacity="0.08"/>
<circle cx="178" cy="903" r="3" fill="black" fill-opacity="0.08"/>
<circle cx="214" cy="903" r="3" fill="black" fill-opacity="0.08"/>
<circle cx="250" cy="903" r="3" fill="black" fill-opacity="0.08"/>
<circle cx="286" cy="903" r="3" fill="black" fill-opacity="0.08"/>
<circle cx="-2" cy="939" r="3" fill="black" fill-opacity="0.08"/>
<circle cx="34" cy="939" r="3" fill="black" fill-opacity="0.08"/>
<circle cx="70" cy="939" r="3" fill="black" fill-opacity="0.08"/>
<circle cx="106" cy="939" r="3" fill="black" fill-opacity="0.08"/>
<circle cx="142" cy="939" r="3" fill="black" fill-opacity="0.08"/>
<circle cx="178" cy="939" r="3" fill="black" fill-opacity="0.08"/>
<circle cx="214" cy="939" r="3" fill="black" fill-opacity="0.08"/>
<circle cx="250" cy="939" r="3" fill="black" fill-opacity="0.08"/>
<circle cx="286" cy="939" r="3" fill="black" fill-opacity="0.08"/>
<circle cx="-2" cy="975" r="3" fill="black" fill-opacity="0.08"/>
<circle cx="34" cy="975" r="3" fill="black" fill-opacity="0.08"/>
<circle cx="70" cy="975" r="3" fill="black" fill-opacity="0.08"/>
<circle cx="106" cy="975" r="3" fill="black" fill-opacity="0.08"/>
<circle cx="142" cy="975" r="3" fill="black" fill-opacity="0.08"/>
<circle cx="178" cy="975" r="3" fill="black" fill-opacity="0.08"/>
<circle cx="214" cy="975" r="3" fill="black" fill-opacity="0.08"/>
<circle cx="250" cy="975" r="3" fill="black" fill-opacity="0.08"/>
<circle cx="286" cy="975" r="3" fill="black" fill-opacity="0.08"/>
<circle cx="-2" cy="1011" r="3" fill="black" fill-opacity="0.08"/>
<circle cx="34" cy="1011" r="3" fill="black" fill-opacity="0.08"/>
<circle cx="70" cy="1011" r="3" fill="black" fill-opacity="0.08"/>
<circle cx="106" cy="1011" r="3" fill="black" fill-opacity="0.08"/>
<circle cx="142" cy="1011" r="3" fill="black" fill-opacity="0.08"/>
<circle cx="178" cy="1011" r="3" fill="black" fill-opacity="0.08"/>
<circle cx="214" cy="1011" r="3" fill="black" fill-opacity="0.08"/>
<circle cx="250" cy="1011" r="3" fill="black" fill-opacity="0.08"/>
<circle cx="286" cy="1011" r="3" fill="black" fill-opacity="0.08"/>
<circle cx="-2" cy="1047" r="3" fill="black" fill-opacity="0.08"/>
<circle cx="34" cy="1047" r="3" fill="black" fill-opacity="0.08"/>
<circle cx="70" cy="1047" r="3" fill="black" fill-opacity="0.08"/>
<circle cx="106" cy="1047" r="3" fill="black" fill-opacity="0.08"/>
<circle cx="142" cy="1047" r="3" fill="black" fill-opacity="0.08"/>
<circle cx="178" cy="1047" r="3" fill="black" fill-opacity="0.08"/>
<circle cx="214" cy="1047" r="3" fill="black" fill-opacity="0.08"/>
<circle cx="250" cy="1047" r="3" fill="black" fill-opacity="0.08"/>
<circle cx="286" cy="1047" r="3" fill="black" fill-opacity="0.08"/>
</svg>
